<?xml version="1.0" encoding="UTF-8" standalone="no"?>
<!DOCTYPE svg PUBLIC "-//W3C//DTD SVG 1.1//EN" "http://www.w3.org/Graphics/SVG/1.1/DTD/svg11.dtd">
<svg width="100%" height="100%" viewBox="0 0 2000 2000" version="1.1" xmlns="http://www.w3.org/2000/svg" xmlns:xlink="http://www.w3.org/1999/xlink" xml:space="preserve" xmlns:serif="http://www.serif.com/" style="fill-rule:evenodd;clip-rule:evenodd;stroke-linejoin:round;stroke-miterlimit:2;">
    <g transform="matrix(5.60993,-1.71652,1.71652,5.60993,-1008.1,39.469)">
        <path d="M306.119,156.534L356.854,105.798L356.036,104.98L305.237,155.779C305.514,155.982 305.793,156.205 306.075,156.488L306.119,156.534Z" style="fill:rgb(220,222,224);fill-rule:nonzero;"/>
        <path d="M306.075,156.488C305.793,156.205 305.514,155.982 305.237,155.779C302.999,154.137 301.066,154.907 301.066,154.907L275.648,180.325L278.988,183.665L301.985,160.668L306.119,156.534L306.075,156.488Z" style="fill:rgb(171,175,178);fill-rule:nonzero;"/>
        <path d="M278.988,183.665L258.905,163.582L157.235,265.252L173.838,281.855L188.093,267.6L174.684,254.19L181.14,247.735L181.173,247.769L258.771,170.171L272.286,183.687L275.626,187.027L278.988,183.665Z" style="fill:rgb(220,222,224);fill-rule:nonzero;"/>
        <path d="M272.286,183.687L258.771,170.171L181.173,247.769L198.029,264.624L269.709,192.944L275.626,187.027L272.286,183.687Z" style="fill:rgb(54,179,240);fill-rule:nonzero;"/>
        <path d="M166.576,289.117L103.234,352.459L85.622,334.847L79.166,341.303L100.258,362.394L103.083,359.57L170.056,292.597L166.576,289.117Z" style="fill:rgb(77,78,78);fill-rule:nonzero;"/>
        <path d="M181.173,247.769L181.14,247.735L174.684,254.19L188.093,267.6L173.838,281.855L177.318,285.335L191.573,271.079L195.877,266.776L198.029,264.624L181.173,247.769Z" style="fill:rgb(77,78,78);fill-rule:nonzero;"/>
        <path d="M173.838,281.855L157.235,265.252L148.157,256.175L140.895,263.436L170.056,292.597L177.318,285.335L173.838,281.855Z" style="fill:rgb(171,175,178);fill-rule:nonzero;"/>
        <path d="M307.025,157.623L357.852,106.796L356.854,105.798L306.119,156.534C306.483,156.904 306.78,157.268 307.025,157.623Z" style="fill:rgb(171,175,178);fill-rule:nonzero;"/>
        <path d="M307.025,157.623C306.78,157.268 306.483,156.904 306.119,156.534L301.985,160.668L278.988,183.665L282.507,187.184L307.925,161.766C307.925,161.766 308.604,159.909 307.025,157.623Z" style="fill:rgb(148,148,148);fill-rule:nonzero;"/>
        <path d="M299.25,203.927L278.988,183.665L275.626,187.027L279.145,190.546L292.661,204.061L215.063,281.659L215.097,281.692L208.642,288.148L195.053,274.559L180.798,288.815L197.58,305.597L299.25,203.927Z" style="fill:rgb(171,175,178);fill-rule:nonzero;"/>
        <path d="M279.145,190.546L275.626,187.027L269.709,192.944L198.029,264.624L215.063,281.659L292.661,204.061L279.145,190.546Z" style="fill:rgb(18,145,208);fill-rule:nonzero;"/>
        <path d="M110.193,359.419L173.536,296.077L170.056,292.597L103.083,359.57L100.258,362.394L121.395,383.531L127.85,377.075L110.193,359.419Z" style="fill:rgb(51,51,51);fill-rule:nonzero;"/>
        <path d="M215.063,281.659L198.029,264.624L195.877,266.776L191.573,271.079L177.318,285.335L180.798,288.815L195.053,274.559L208.642,288.148L215.097,281.692L215.063,281.659Z" style="fill:rgb(51,51,51);fill-rule:nonzero;"/>
        <path d="M206.658,314.675L180.798,288.815L177.318,285.335L170.056,292.597L199.396,321.937L206.658,314.675Z" style="fill:rgb(148,148,148);fill-rule:nonzero;"/>
        <path d="M283.897,207.67L269.44,193.213L270.919,191.734L285.376,206.191L283.897,207.67Z" style="fill:white;fill-rule:nonzero;"/>
        <path d="M275.828,215.739L261.371,201.282L262.85,199.803L277.307,214.26L275.828,215.739Z" style="fill:white;fill-rule:nonzero;"/>
        <path d="M267.759,223.808L253.302,209.351L254.781,207.872L269.238,222.329L267.759,223.808Z" style="fill:white;fill-rule:nonzero;"/>
        <path d="M259.69,231.877L245.232,217.42L246.712,215.941L261.169,230.398L259.69,231.877Z" style="fill:white;fill-rule:nonzero;"/>
        <path d="M251.62,239.946L237.163,225.489L238.643,224.01L253.1,238.467L251.62,239.946Z" style="fill:white;fill-rule:nonzero;"/>
        <path d="M243.551,248.015L229.094,233.558L230.574,232.079L245.031,246.536L243.551,248.015Z" style="fill:white;fill-rule:nonzero;"/>
        <path d="M235.482,256.085L221.025,241.627L222.505,240.148L236.962,254.605L235.482,256.085Z" style="fill:white;fill-rule:nonzero;"/>
        <path d="M227.413,264.153L212.956,249.696L214.436,248.217L228.893,262.674L227.413,264.153Z" style="fill:white;fill-rule:nonzero;"/>
        <path d="M219.344,272.223L204.887,257.766L206.367,256.287L220.824,270.743L219.344,272.223Z" style="fill:white;fill-rule:nonzero;"/>
        <g transform="matrix(0.956239,0.292588,-0.292588,0.956239,44.0173,-97.8515)">
            <path d="M359.678,123.265C359.678,123.265 338.74,169.184 359.608,169.184C380.028,169.184 359.678,123.265 359.678,123.265Z" style="fill:rgb(54,179,240);fill-rule:nonzero;"/>
        </g>
        <g transform="matrix(0.956239,0.292588,-0.292588,0.956239,44.0173,-97.8515)">
            <path d="M358.785,160.734C358.785,162.009 357.752,163.042 356.478,163.042C355.204,163.042 354.171,162.009 354.171,160.734C354.171,159.46 355.204,158.427 356.478,158.427C357.752,158.427 358.785,159.46 358.785,160.734Z" style="fill:white;fill-rule:nonzero;"/>
        </g>
    </g>
    <g transform="matrix(1.09657,0,0,1.45298,-569.285,-450.981)">
        <text x="1093.22px" y="1607.75px" style="font-family:'LucidaHandwriting-Italic', 'Lucida Handwriting', cursive;font-style:italic;font-size:1456.89px;fill:rgb(54,179,240);">A</text>
    </g>
</svg>
